# xmcd
#
# Track frame offsets: 
#        150
#        17580
#        28214
#        48051
#        60847
#        76840
#        93453
#        110624
#        132203
#        150003
#        165460
#        174615
#
# Disc length: 2468 seconds
#
# Revision: 0
# Processed by: cddbd v1.5.2PL0 Copyright (c) Steve Scherf et al.
# Submitted via: ExactAudioCopy v0.99pb5
#
DISCID=7e09a20c
DTITLE=Mark Gillespie - Unplugged
DYEAR=2007
DGENRE=Blues
TTITLE0=Don`t mess around
TTITLE1=Ain`t no sunshine
TTITLE2=Probably me
TTITLE3=Take to the skies
TTITLE4=Waiting in vain
TTITLE5=Angels in the rain
TTITLE6=So beautiful
TTITLE7=Chasing cars
TTITLE8=Crazy
TTITLE9=Chasing the moon
TTITLE10=Winter Wonderland
TTITLE11=3angels
EXTD=
EXTT0=
EXTT1=
EXTT2=
EXTT3=
EXTT4=
EXTT5=
EXTT6=
EXTT7=
EXTT8=
EXTT9=
EXTT10=
EXTT11=
PLAYORDER=
